# Blender v2.93.6 OBJ File: 'gmj.blend'
# www.blender.org
mtllib mapa.mtl
o Cube
v 8.354056 0.750000 -8.354056
v 8.354056 -0.750000 -8.354056
v 8.354056 0.750000 8.354055
v 8.354056 -0.750000 8.354055
v -8.354056 0.750000 -8.354056
v -8.354056 -0.750000 -8.354056
v -8.354056 0.750000 8.354055
v -8.354056 -0.750000 8.354055
v -13.960241 0.750000 9.675711
v -13.960241 -0.750000 9.675711
v -13.960241 0.750000 21.675713
v -13.960241 -0.750000 21.675713
v -37.512253 0.750000 9.675711
v -37.512253 -0.750000 9.675711
v -37.512253 0.750000 21.675713
v -37.512253 -0.750000 21.675713
v 18.956364 0.750000 -13.347903
v 18.956364 -0.750000 -13.347903
v 30.956364 0.750000 -13.347903
v 30.956364 -0.750000 -13.347903
v 18.956364 0.750000 12.568024
v 18.956364 -0.750000 12.568024
v 30.956364 0.750000 12.568024
v 30.956364 -0.750000 12.568024
v 14.446074 0.750000 -21.673422
v 14.446074 -0.750000 -21.673422
v 14.446074 0.750000 -35.445446
v 14.446074 -0.750000 -35.445446
v 33.782101 0.750000 -21.673422
v 33.782101 -0.750000 -21.673422
v 33.782101 0.750000 -35.445450
v 33.782101 -0.750000 -35.445450
v -41.038383 0.750000 -17.835131
v -41.038383 -0.750000 -17.835131
v -41.038383 0.750000 -33.668556
v -41.038383 -0.750000 -33.668556
v -15.362990 0.750000 -17.835131
v -15.362990 -0.750000 -17.835131
v -15.362990 0.750000 -33.668564
v -15.362990 -0.750000 -33.668564
v -19.766821 0.375000 12.098299
v -19.766821 -0.375000 12.098299
v -22.933506 0.375000 12.098299
v -22.933506 -0.375000 12.098299
v -19.766823 0.375000 -19.709936
v -19.766823 -0.375000 -19.709936
v -22.933510 0.375000 -19.709936
v -22.933510 -0.375000 -19.709936
v 14.768608 0.375000 -29.253687
v 14.768608 -0.375000 -29.253687
v 14.768608 0.375000 -26.087002
v 14.768608 -0.375000 -26.087002
v -17.039625 0.375000 -29.253683
v -17.039625 -0.375000 -29.253683
v -17.039625 0.375000 -26.086996
v -17.039625 -0.375000 -26.086996
v 20.766006 0.375000 -1.553378
v 20.766006 -0.375000 -1.553378
v 20.766006 0.375000 1.608071
v 20.766006 -0.375000 1.608071
v -19.094585 0.375000 -1.553378
v -19.094585 -0.375000 -1.553378
v -19.094585 0.375000 1.608071
v -19.094585 -0.375000 1.608071
v 10.762454 0.375000 -24.287664
v 10.762454 -0.375000 -24.287664
v 13.783991 0.375000 -24.287664
v 13.783991 -0.375000 -24.287664
v 10.762454 0.375000 -2.945017
v 10.762454 -0.375000 -2.945017
v 13.783991 0.375000 -2.945018
v 13.783991 -0.375000 -2.945018
v 10.762454 0.375000 2.275755
v 10.762454 -0.375000 2.275755
v 13.783991 0.375000 2.275755
v 13.783991 -0.375000 2.275755
v 10.762454 0.375000 14.972447
v 10.762454 -0.375000 14.972447
v 13.783991 0.375000 14.972446
v 13.783991 -0.375000 14.972446
v -15.057238 0.375000 18.709652
v -15.057238 -0.375000 18.709652
v -15.057238 0.375000 15.542966
v -15.057238 -0.375000 15.542966
v 26.668297 0.375000 18.709644
v 26.668297 -0.375000 18.709644
v 26.668297 0.375000 15.542957
v 26.668297 -0.375000 15.542957
v 23.503679 0.375000 10.354299
v 23.503679 -0.375000 10.354299
v 26.668297 0.375000 10.354299
v 26.668297 -0.375000 10.354299
v 23.503679 0.375000 15.463037
v 23.503679 -0.375000 15.463037
v 26.668297 0.375000 15.463037
v 26.668297 -0.375000 15.463037
v 23.497805 0.375000 -22.260572
v 23.497805 -0.375000 -22.260572
v 26.664488 0.375000 -22.260572
v 26.664488 -0.375000 -22.260572
v 23.497808 0.375000 -12.366399
v 23.497808 -0.375000 -12.366399
v 26.664495 0.375000 -12.366399
v 26.664495 -0.375000 -12.366399
v -19.766821 -0.375000 1.608071
v -19.766823 -0.375000 -1.553378
v -22.933508 0.375000 1.608071
v -22.933510 0.375000 -1.553378
v -22.933508 -0.375000 -1.553378
v -22.933506 -0.375000 1.608071
v -19.766823 0.375000 -1.553378
v -19.766823 0.375000 1.608071
v 13.783991 -0.375000 -1.553378
v 10.762454 -0.375000 -1.553378
v 13.783991 0.375000 1.608071
v 10.762454 0.375000 1.608071
v 10.762454 -0.375000 1.608071
v 13.783991 -0.375000 1.608071
v 10.762454 0.375000 -1.553378
v 13.783991 0.375000 -1.553378
v 23.503679 -0.375000 18.709644
v 23.503679 0.375000 15.542958
v 23.503679 -0.375000 15.542958
v 23.503679 0.375000 18.709644
v 13.783991 -0.375000 -29.253687
v 10.762454 -0.375000 -29.253685
v 13.783991 0.375000 -26.087002
v 10.762454 0.375000 -26.087000
v 10.762454 -0.375000 -26.087000
v 13.783991 -0.375000 -26.087002
v 10.762454 0.375000 -29.253685
v 13.783991 0.375000 -29.253687
v 10.762454 -0.375000 15.542962
v 13.783991 -0.375000 15.542963
v 10.762454 0.375000 18.709646
v 13.783991 0.375000 18.709648
v 13.783991 -0.375000 18.709650
v 10.762454 -0.375000 18.709648
v 13.783991 0.375000 15.542963
v 10.762454 0.375000 15.542962
vt 0.625000 0.500000
vt 0.875000 0.500000
vt 0.875000 0.750000
vt 0.625000 0.750000
vt 0.375000 0.750000
vt 0.625000 1.000000
vt 0.375000 1.000000
vt 0.375000 0.000000
vt 0.625000 0.000000
vt 0.625000 0.250000
vt 0.375000 0.250000
vt 0.125000 0.500000
vt 0.375000 0.500000
vt 0.125000 0.750000
vt 0.625000 0.500000
vt 0.875000 0.500000
vt 0.875000 0.750000
vt 0.625000 0.750000
vt 0.375000 0.750000
vt 0.625000 1.000000
vt 0.375000 1.000000
vt 0.375000 0.000000
vt 0.625000 0.000000
vt 0.625000 0.250000
vt 0.375000 0.250000
vt 0.125000 0.500000
vt 0.375000 0.500000
vt 0.125000 0.750000
vt 0.625000 0.500000
vt 0.875000 0.500000
vt 0.875000 0.750000
vt 0.625000 0.750000
vt 0.375000 0.750000
vt 0.625000 1.000000
vt 0.375000 1.000000
vt 0.375000 0.000000
vt 0.625000 0.000000
vt 0.625000 0.250000
vt 0.375000 0.250000
vt 0.125000 0.500000
vt 0.375000 0.500000
vt 0.125000 0.750000
vt 0.625000 0.500000
vt 0.875000 0.500000
vt 0.875000 0.750000
vt 0.625000 0.750000
vt 0.375000 0.750000
vt 0.625000 1.000000
vt 0.375000 1.000000
vt 0.375000 0.000000
vt 0.625000 0.000000
vt 0.625000 0.250000
vt 0.375000 0.250000
vt 0.125000 0.500000
vt 0.375000 0.500000
vt 0.125000 0.750000
vt 0.625000 0.500000
vt 0.875000 0.500000
vt 0.875000 0.750000
vt 0.625000 0.750000
vt 0.375000 0.750000
vt 0.625000 1.000000
vt 0.375000 1.000000
vt 0.375000 0.000000
vt 0.625000 0.000000
vt 0.625000 0.250000
vt 0.375000 0.250000
vt 0.125000 0.500000
vt 0.375000 0.500000
vt 0.125000 0.750000
vt 0.791667 0.500000
vt 0.875000 0.500000
vt 0.875000 0.750000
vt 0.791667 0.750000
vt 0.375000 0.916667
vt 0.625000 0.916667
vt 0.625000 1.000000
vt 0.375000 1.000000
vt 0.375000 0.000000
vt 0.625000 0.000000
vt 0.625000 0.250000
vt 0.375000 0.250000
vt 0.291667 0.500000
vt 0.375000 0.500000
vt 0.375000 0.750000
vt 0.291667 0.750000
vt 0.625000 0.500000
vt 0.625000 0.750000
vt 0.375000 0.416667
vt 0.625000 0.416667
vt 0.711617 0.500000
vt 0.875000 0.500000
vt 0.875000 0.750000
vt 0.711617 0.750000
vt 0.375000 0.836617
vt 0.625000 0.836617
vt 0.625000 1.000000
vt 0.375000 1.000000
vt 0.375000 0.000000
vt 0.625000 0.000000
vt 0.625000 0.250000
vt 0.375000 0.250000
vt 0.371716 0.500000
vt 0.375000 0.500000
vt 0.375000 0.750000
vt 0.371716 0.750000
vt 0.625000 0.500000
vt 0.625000 0.750000
vt 0.375000 0.496716
vt 0.625000 0.496716
vt 0.791667 0.500000
vt 0.875000 0.500000
vt 0.875000 0.750000
vt 0.791667 0.750000
vt 0.375000 0.916667
vt 0.625000 0.916667
vt 0.625000 1.000000
vt 0.375000 1.000000
vt 0.125000 0.500000
vt 0.208333 0.500000
vt 0.625000 0.333333
vt 0.625000 0.250000
vt 0.291667 0.500000
vt 0.375000 0.500000
vt 0.375000 0.750000
vt 0.291667 0.750000
vt 0.625000 0.500000
vt 0.625000 0.750000
vt 0.375000 0.416667
vt 0.625000 0.416667
vt 0.625000 0.500000
vt 0.875000 0.500000
vt 0.875000 0.750000
vt 0.625000 0.750000
vt 0.375000 0.750000
vt 0.625000 1.000000
vt 0.375000 1.000000
vt 0.125000 0.500000
vt 0.375000 0.500000
vt 0.125000 0.750000
vt 0.288383 0.750000
vt 0.375000 0.250000
vt 0.625000 0.250000
vt 0.625000 0.500000
vt 0.875000 0.500000
vt 0.875000 0.750000
vt 0.625000 0.750000
vt 0.375000 0.750000
vt 0.625000 1.000000
vt 0.375000 1.000000
vt 0.125000 0.500000
vt 0.375000 0.500000
vt 0.125000 0.750000
vt 0.708333 0.750000
vt 0.375000 0.250000
vt 0.625000 0.250000
vt 0.856433 0.500000
vt 0.875000 0.500000
vt 0.875000 0.750000
vt 0.856433 0.750000
vt 0.375000 0.000000
vt 0.625000 0.000000
vt 0.625000 0.250000
vt 0.375000 0.250000
vt 0.375000 0.500000
vt 0.625000 0.500000
vt 0.625000 0.750000
vt 0.375000 0.750000
vt 0.000000 0.000000
vt 0.000000 0.000000
vt 0.375000 0.345711
vt 0.375000 0.422856
vt 0.625000 0.500000
vt 0.875000 0.500000
vt 0.875000 0.750000
vt 0.625000 0.750000
vt 0.375000 0.750000
vt 0.625000 1.000000
vt 0.375000 1.000000
vt 0.125000 0.500000
vt 0.375000 0.500000
vt 0.125000 0.750000
vt 0.375000 0.250000
vt 0.625000 0.250000
vt 0.625000 0.500000
vt 0.875000 0.500000
vt 0.875000 0.750000
vt 0.625000 0.750000
vt 0.375000 0.750000
vt 0.625000 1.000000
vt 0.375000 1.000000
vt 0.375000 0.000000
vt 0.625000 0.000000
vt 0.625000 0.250000
vt 0.375000 0.250000
vt 0.125000 0.500000
vt 0.375000 0.500000
vt 0.125000 0.750000
vt 0.375000 0.333333
vt 0.125000 0.750000
vt 0.125000 0.500000
vt 0.208333 0.750000
vt 0.125000 0.750000
vt 0.625000 0.833333
vt 0.375000 0.833333
vt 0.708333 0.500000
vt 0.708333 0.750000
vt 0.375000 0.250000
vt 0.625000 0.333333
vt 0.375000 0.333333
vt 0.208333 0.500000
vt 0.208333 0.750000
vt 0.625000 0.833333
vt 0.375000 0.833333
vt 0.708333 0.500000
vt 0.625000 0.268567
vt 0.375000 0.268567
vt 0.125000 0.500000
vt 0.143567 0.500000
vt 0.143567 0.750000
vt 0.125000 0.750000
vt 0.375000 0.981433
vt 0.625000 0.981433
vt 0.625000 0.413383
vt 0.375000 0.413383
vt 0.125000 0.500000
vt 0.288383 0.500000
vt 0.125000 0.750000
vt 0.625000 0.753284
vt 0.375000 0.753284
vt 0.628284 0.500000
vt 0.628284 0.750000
vt 0.625000 0.345711
vt 0.625000 0.422856
vt 0.000000 0.000000
vt 0.000000 0.000000
vn 0.0000 1.0000 0.0000
vn 0.0000 0.0000 1.0000
vn -1.0000 0.0000 0.0000
vn 0.0000 -1.0000 0.0000
vn 1.0000 0.0000 0.0000
vn 0.0000 0.0000 -1.0000
usemtl Material
s off
f 1/1/1 5/2/1 7/3/1 3/4/1
f 4/5/2 3/4/2 7/6/2 8/7/2
f 8/8/3 7/9/3 5/10/3 6/11/3
f 6/12/4 2/13/4 4/5/4 8/14/4
f 2/13/5 1/1/5 3/4/5 4/5/5
f 6/11/6 5/10/6 1/1/6 2/13/6
f 9/15/1 13/16/1 15/17/1 11/18/1
f 12/19/2 11/18/2 15/20/2 16/21/2
f 16/22/3 15/23/3 13/24/3 14/25/3
f 14/26/4 10/27/4 12/19/4 16/28/4
f 10/27/5 9/15/5 11/18/5 12/19/5
f 14/25/6 13/24/6 9/15/6 10/27/6
f 17/29/1 21/30/1 23/31/1 19/32/1
f 20/33/5 19/32/5 23/34/5 24/35/5
f 24/36/2 23/37/2 21/38/2 22/39/2
f 22/40/4 18/41/4 20/33/4 24/42/4
f 18/41/6 17/29/6 19/32/6 20/33/6
f 22/39/3 21/38/3 17/29/3 18/41/3
f 25/43/1 29/44/1 31/45/1 27/46/1
f 28/47/6 27/46/6 31/48/6 32/49/6
f 32/50/5 31/51/5 29/52/5 30/53/5
f 30/54/4 26/55/4 28/47/4 32/56/4
f 26/55/3 25/43/3 27/46/3 28/47/3
f 30/53/2 29/52/2 25/43/2 26/55/2
f 33/57/1 37/58/1 39/59/1 35/60/1
f 36/61/6 35/60/6 39/62/6 40/63/6
f 40/64/5 39/65/5 37/66/5 38/67/5
f 38/68/4 34/69/4 36/61/4 40/70/4
f 34/69/3 33/57/3 35/60/3 36/61/3
f 38/67/2 37/66/2 33/57/2 34/69/2
f 111/71/1 45/72/1 47/73/1 108/74/1
f 109/75/3 108/76/3 47/77/3 48/78/3
f 48/79/6 47/80/6 45/81/6 46/82/6
f 105/83/4 42/84/4 44/85/4 110/86/4
f 42/84/2 41/87/2 43/88/2 44/85/2
f 105/89/5 112/90/5 41/87/5 42/84/5
f 131/91/1 53/92/1 55/93/1 128/94/1
f 129/95/2 128/96/2 55/97/2 56/98/2
f 56/99/3 55/100/3 53/101/3 54/102/3
f 125/103/4 50/104/4 52/105/4 130/106/4
f 50/104/5 49/107/5 51/108/5 52/105/5
f 125/109/6 132/110/6 49/107/6 50/104/6
f 119/111/1 61/112/1 63/113/1 116/114/1
f 117/115/2 116/116/2 63/117/2 64/118/2
f 62/119/6 106/120/6 111/121/6 61/122/6
f 113/123/4 58/124/4 60/125/4 118/126/4
f 58/124/5 57/127/5 59/128/5 60/125/5
f 113/129/6 120/130/6 57/127/6 58/124/6
f 65/131/1 69/132/1 71/133/1 67/134/1
f 68/135/5 67/134/5 71/136/5 72/137/5
f 70/138/4 66/139/4 68/135/4 72/140/4
f 68/135/4 66/139/4 129/141/4 130/106/4
f 70/142/3 69/143/3 65/131/3 66/139/3
f 73/144/1 77/145/1 79/146/1 75/147/1
f 76/148/5 75/147/5 79/149/5 80/150/5
f 78/151/4 74/152/4 76/148/4 80/153/4
f 73/144/1 75/147/1 115/154/1 116/114/1
f 78/155/3 77/156/3 73/144/3 74/152/3
f 124/157/1 85/158/1 87/159/1 122/160/1
f 88/161/5 87/162/5 85/163/5 86/164/5
f 82/165/3 81/166/3 83/167/3 84/168/3
f 134/169/1 133/170/1 138/171/1 137/172/1
f 89/173/1 93/174/1 95/175/1 91/176/1
f 92/177/5 91/176/5 95/178/5 96/179/5
f 94/180/4 90/181/4 92/177/4 96/182/4
f 90/181/6 89/173/6 91/176/6 92/177/6
f 94/183/3 93/184/3 89/173/3 90/181/3
f 97/185/1 101/186/1 103/187/1 99/188/1
f 100/189/5 99/188/5 103/190/5 104/191/5
f 104/192/2 103/193/2 101/194/2 102/195/2
f 102/196/4 98/197/4 100/189/4 104/198/4
f 98/197/6 97/185/6 99/188/6 100/189/6
f 102/195/3 101/194/3 97/185/3 98/197/3
f 46/82/5 45/81/5 111/121/5 106/199/5
f 62/119/4 64/200/4 105/83/4 106/120/4
f 46/201/4 106/120/4 109/202/4 48/203/4
f 106/120/4 105/83/4 110/86/4 109/202/4
f 44/85/3 43/88/3 107/204/3 110/205/3
f 110/205/3 107/204/3 108/76/3 109/75/3
f 41/87/1 112/206/1 107/207/1 43/88/1
f 112/206/1 111/71/1 108/74/1 107/207/1
f 63/113/1 61/122/1 111/71/1 112/206/1
f 64/200/2 63/113/2 112/90/2 105/83/2
f 62/208/6 61/122/6 119/209/6 114/210/6
f 62/119/4 114/211/4 117/212/4 64/200/4
f 114/211/4 113/123/4 118/126/4 117/212/4
f 60/125/2 59/128/2 115/213/2 118/214/2
f 57/127/1 120/215/1 115/154/1 59/128/1
f 120/215/1 119/111/1 116/114/1 115/154/1
f 74/152/3 73/144/3 116/116/3 117/115/3
f 76/148/4 74/152/4 117/212/4 118/126/4
f 76/148/5 118/126/5 115/213/5 75/147/5
f 70/138/4 72/140/4 113/123/4 114/211/4
f 72/140/5 71/136/5 120/130/5 113/123/5
f 71/136/1 69/132/1 119/111/1 120/130/1
f 70/138/3 114/211/3 119/209/3 69/132/3
f 86/164/2 85/163/2 124/216/2 121/217/2
f 86/218/4 121/219/4 123/220/4 88/221/4
f 122/160/1 87/159/1 95/175/1 93/174/1
f 94/183/3 123/222/3 122/223/3 93/174/3
f 94/183/4 96/182/4 88/221/4 123/222/4
f 87/159/5 88/221/5 96/179/5 95/175/5
f 54/102/6 53/101/6 131/224/6 126/225/6
f 126/225/6 131/224/6 132/110/6 125/109/6
f 54/226/4 126/227/4 129/141/4 56/228/4
f 126/227/4 125/103/4 130/106/4 129/141/4
f 52/105/2 51/108/2 127/229/2 130/230/2
f 68/135/5 130/106/5 127/229/5 67/134/5
f 49/107/1 132/231/1 127/232/1 51/108/1
f 132/231/1 131/91/1 128/94/1 127/232/1
f 134/169/1 137/172/1 121/219/1 123/220/1
f 138/171/6 135/233/6 136/234/6 137/172/6
f 65/131/1 67/134/1 127/232/1 128/94/1
f 66/139/3 65/131/3 128/96/3 129/141/3
f 134/169/6 139/235/6 122/223/6 123/220/6
f 121/219/2 124/216/2 136/234/2 137/172/2
f 124/216/1 122/223/1 139/235/1 136/234/1
f 78/151/4 80/153/4 134/169/4 133/170/4
f 135/233/1 136/234/1 139/235/1 140/236/1
f 82/165/4 84/168/4 133/170/4 138/171/4
f 83/167/1 81/166/1 135/233/1 140/236/1
f 82/165/2 138/171/2 135/233/2 81/166/2
f 84/168/6 83/167/6 140/236/6 133/170/6
f 80/153/5 79/149/5 139/235/5 134/169/5
f 77/145/1 140/236/1 139/235/1 79/149/1
f 78/151/3 133/170/3 140/236/3 77/145/3
